HIERARCHY
ROOT root
{
	OFFSET	0.000000	0.000000	0.000000
	CHANNELS 6 Xposition Yposition Zposition Zrotation Yrotation Xrotation
	JOINT lhipjoint
	{
		OFFSET	0.000000	0.000000	0.000000
		CHANNELS 3 Zrotation Yrotation Xrotation
		JOINT lfemur
		{
			OFFSET	1.645494	-1.708786	0.845660
			CHANNELS 3 Zrotation Yrotation Xrotation
			JOINT ltibia
			{
				OFFSET	2.249633	-6.180820	0.000000
				CHANNELS 3 Zrotation Yrotation Xrotation
				JOINT lfoot
				{
					OFFSET	2.717752	-7.466968	0.000000
					CHANNELS 3 Zrotation Yrotation Xrotation
					JOINT ltoes
					{
						OFFSET	0.187679	-0.515643	2.247368
						CHANNELS 3 Zrotation Yrotation Xrotation
						End Site
						{
							OFFSET	0.000000	-0.000000	1.159350
						}
					}
				}
			}
		}
	}
	JOINT rhipjoint
	{
		OFFSET	0.000000	0.000000	0.000000
		CHANNELS 3 Zrotation Yrotation Xrotation
		JOINT rfemur
		{
			OFFSET	-1.588298	-1.708789	0.845662
			CHANNELS 3 Zrotation Yrotation Xrotation
			JOINT rtibia
			{
				OFFSET	-2.250064	-6.182003	0.000000
				CHANNELS 3 Zrotation Yrotation Xrotation
				JOINT rfoot
				{
					OFFSET	-2.728293	-7.495929	0.000000
					CHANNELS 3 Zrotation Yrotation Xrotation
					JOINT rtoes
					{
						OFFSET	-0.215414	-0.591846	2.106425
						CHANNELS 3 Zrotation Yrotation Xrotation
						End Site
						{
							OFFSET	-0.000000	-0.000000	1.098380
						}
					}
				}
			}
		}
	}
	JOINT lowerback
	{
		OFFSET	0.000000	0.000000	0.000000
		CHANNELS 3 Zrotation Yrotation Xrotation
		JOINT upperback
		{
			OFFSET	0.031419	2.104964	-0.110379
			CHANNELS 3 Zrotation Yrotation Xrotation
			JOINT thorax
			{
				OFFSET	-0.018626	2.108971	-0.069557
				CHANNELS 3 Zrotation Yrotation Xrotation
				JOINT lowerneck
				{
					OFFSET	-0.034945	2.110023	-0.018114
					CHANNELS 3 Zrotation Yrotation Xrotation
					JOINT upperneck
					{
						OFFSET	-0.022675	1.732376	0.004511
						CHANNELS 3 Zrotation Yrotation Xrotation
						JOINT head
						{
							OFFSET	-0.058084	1.547243	-0.617485
							CHANNELS 3 Zrotation Yrotation Xrotation
							End Site
							{
								OFFSET	-0.013955	1.714682	-0.210818
							}
						}
					}
				}
				JOINT lclavicle
				{
					OFFSET	-0.034945	2.110023	-0.018114
					CHANNELS 3 Zrotation Yrotation Xrotation
					JOINT lhumerus
					{
						OFFSET	3.448981	0.502979	0.219205
						CHANNELS 3 Zrotation Yrotation Xrotation
						JOINT lradius
						{
							OFFSET	5.419170	-0.000000	-0.000000
							CHANNELS 3 Zrotation Yrotation Xrotation
							JOINT lwrist
							{
								OFFSET	2.443730	-0.000000	0.000000
								CHANNELS 3 Zrotation Yrotation Xrotation
								JOINT lhand
								{
									OFFSET	1.221860	-0.000000	0.000000
									CHANNELS 3 Zrotation Yrotation Xrotation
									JOINT lfingers
									{
										OFFSET	0.727502	-0.000000	0.000000
										CHANNELS 3 Zrotation Yrotation Xrotation
										End Site
										{
											OFFSET	0.586531	-0.000000	0.000000
										}
									}
								}
								JOINT lthumb
								{
									OFFSET	1.221860	-0.000000	0.000000
									CHANNELS 3 Zrotation Yrotation Xrotation
									End Site
									{
										OFFSET	0.595487	-0.000000	0.595487
									}
								}
							}
						}
					}
				}
				JOINT rclavicle
				{
					OFFSET	-0.034945	2.110023	-0.018114
					CHANNELS 3 Zrotation Yrotation Xrotation
					JOINT rhumerus
					{
						OFFSET	-3.230153	0.558301	0.310511
						CHANNELS 3 Zrotation Yrotation Xrotation
						JOINT rradius
						{
							OFFSET	-5.589760	-0.000102	0.000137
							CHANNELS 3 Zrotation Yrotation Xrotation
							JOINT rwrist
							{
								OFFSET	-2.480600	-0.000000	0.000000
								CHANNELS 3 Zrotation Yrotation Xrotation
								JOINT rhand
								{
									OFFSET	-1.240300	-0.000000	0.000000
									CHANNELS 3 Zrotation Yrotation Xrotation
									JOINT rfingers
									{
										OFFSET	-0.816009	-0.000000	0.000000
										CHANNELS 3 Zrotation Yrotation Xrotation
										End Site
										{
											OFFSET	-0.657887	-0.000000	0.000000
										}
									}
								}
								JOINT rthumb
								{
									OFFSET	-1.240300	-0.000000	0.000000
									CHANNELS 3 Zrotation Yrotation Xrotation
									End Site
									{
										OFFSET	-0.667932	-0.000000	0.667932
									}
								}
							}
						}
					}
				}
			}
		}
	}
}
MOTION
Frames:	8
Frame Time:	0.008333
	-1.284010	18.337200	-0.885465	-171.559006	7.289890	-164.755005	0.000000	0.000000	0.000000	-12.500095	-15.198962	-34.886265	4.184900	12.402469	37.171024	2.770139	8.904966	-35.521896	7.420946	15.676358	50.448986	0.000000	0.000000	0.000000	15.183811	-56.153843	-73.535362	-29.376087	-17.746075	118.445930	15.546590	-55.003273	-16.677296	-10.010913	-17.415983	59.524834	6.620580	3.890820	-8.287900	2.421410	6.849111	-10.761799	-1.008990	3.795691	-6.386600	-1.923980	1.623670	-7.716431	2.292871	-1.405200	32.927307	0.752156	-1.895430	12.100001	-1.923980	-0.000000	0.000000	-2.143124	5.120730	49.638298	37.519409	-46.529598	-16.615927	0.000000	0.000000	40.313889	37.289387	-0.917884	-0.698904	-7.125019	0.000000	0.000000	8.333140	28.784136	-3.323054	-1.923980	-0.000000	0.000000	4.694822	-16.576828	49.345619	-35.449188	45.130230	-15.130821	0.000000	0.000000	16.317200	-46.751286	43.629314	-36.260578	7.125019	0.000000	0.000000	-3.930911	24.211153	-5.205879
	-1.305870	18.367500	-1.037120	-171.209000	6.910760	-164.460999	0.000000	0.000000	0.000000	-12.446656	-15.017585	-34.705433	4.143526	12.348984	36.977974	2.453337	10.899597	-35.041534	7.199850	15.497897	49.626171	0.000000	0.000000	0.000000	15.781576	-58.620850	-75.667053	-30.074402	-17.367802	120.760590	16.143400	-55.550594	-17.565125	-10.130707	-17.482698	59.924324	7.179310	3.916710	-8.759231	2.476011	6.889441	-10.843702	-1.212690	3.814100	-6.179241	-1.921040	1.621090	-7.701200	2.411330	-1.454170	32.969799	0.790075	-1.904900	12.116599	-1.921040	-0.000000	0.000000	-2.444605	6.140071	48.971676	35.023991	-44.829250	-14.830262	0.000000	0.000000	40.609699	36.701748	0.685381	0.510875	-7.125019	0.000000	0.000000	8.039680	30.777822	-2.817991	-1.921040	-0.000000	0.000000	4.925518	-18.159302	47.038551	-33.101940	43.408245	-13.492071	0.000000	0.000000	16.291594	-45.833408	44.171329	-35.654823	7.125019	0.000000	0.000000	-3.295058	24.300697	-4.364210
	-1.320930	18.399300	-1.171580	-170.906006	6.637980	-164.188995	0.000000	0.000000	0.000000	-12.370647	-14.854054	-34.530678	4.099786	12.292024	36.773003	2.225292	12.227242	-34.699409	7.018302	15.347281	48.943508	0.000000	0.000000	0.000000	16.870253	-60.851078	-78.356689	-30.758896	-16.960394	123.079735	16.813616	-56.416229	-16.793743	-10.151224	-17.494019	59.992607	7.597299	3.886570	-8.899501	2.533741	6.912690	-11.044001	-1.379390	3.823830	-6.302730	-1.991020	1.745220	-7.759790	2.591600	-1.385420	33.285904	0.873941	-1.885700	12.258299	-1.991020	0.000000	0.000000	-2.702977	7.253545	48.258961	32.589527	-43.012146	-13.141223	0.000000	0.000000	40.763691	35.991173	0.350391	0.254488	-7.125019	0.000000	0.000000	7.447994	30.367407	-2.681076	-1.991020	0.000000	0.000000	5.055444	-19.535128	44.973625	-30.802681	41.571552	-11.938704	-0.000000	-0.000003	16.557995	-45.458199	44.594654	-35.504322	7.125019	0.000000	0.000000	-2.952897	24.533173	-3.916068
	-1.330510	18.431000	-1.290870	-170.548996	6.284400	-163.848999	0.000000	0.000000	0.000000	-12.153458	-14.719015	-34.445824	4.049349	12.225785	36.535450	2.341298	11.900890	-35.105255	7.118577	15.430936	49.321369	0.000000	0.000000	0.000000	18.680756	-62.866695	-81.517395	-31.389204	-16.550642	125.265862	17.266367	-57.750111	-12.490089	-9.976675	-17.396719	59.410385	7.929580	3.778540	-8.812011	2.695930	6.901290	-11.339898	-1.423740	3.824930	-6.687010	-1.735040	1.716730	-7.353280	2.404830	-1.462350	33.204899	0.747482	-1.928690	12.141100	-1.735040	-0.000000	0.000000	-3.139849	8.363892	47.190838	30.362991	-41.202499	-11.647997	-0.000001	-0.000003	41.440399	35.765232	-0.493665	-0.355579	-7.125019	0.000000	0.000000	7.194307	29.336470	-2.766668	-1.735040	-0.000000	0.000000	4.978386	-20.651804	43.087402	-28.567482	39.633438	-10.483696	0.000000	0.000000	16.911997	-44.391716	44.850662	-34.622875	7.125019	0.000000	0.000000	-2.372864	24.292910	-3.140854
	-1.342510	18.458599	-1.421210	-170.205994	5.935510	-163.548004	0.000000	0.000000	0.000000	-11.972486	-14.657887	-34.269203	4.009502	12.173039	36.346882	2.208111	12.752110	-34.982170	6.996571	15.329000	48.861359	0.000000	0.000000	0.000000	20.293358	-65.294762	-84.416573	-31.981346	-16.132961	127.370148	16.876860	-58.897686	-6.328711	-9.772387	-17.279856	58.724880	8.286621	3.636550	-8.972310	2.895810	6.755820	-11.417800	-1.407310	3.759460	-6.701121	-1.613590	1.767540	-7.715770	2.291320	-1.371800	33.396805	0.691879	-1.883300	12.293099	-1.613590	-0.000000	0.000000	-3.710348	9.636544	45.528103	28.285851	-39.378067	-10.304540	0.000000	0.000000	42.684788	35.685299	-0.818959	-0.588116	-7.125019	0.000000	0.000000	7.102335	28.940311	-2.798167	-1.613590	-0.000000	0.000000	4.889022	-21.217731	41.187519	-26.285833	37.489571	-9.061062	-0.000001	-0.000003	17.145697	-44.640469	44.326229	-34.606777	7.125019	0.000000	0.000000	-2.696750	23.900160	-3.560893
	-1.366600	18.479099	-1.569320	-170.054001	5.641779	-163.453003	0.000000	0.000000	0.000000	-12.239585	-14.480585	-33.812695	3.977793	12.130796	36.196259	2.055358	13.502445	-34.700890	6.879854	15.229879	48.418449	0.000000	0.000000	0.000000	21.014414	-68.232956	-86.711380	-32.529552	-15.715592	129.368027	16.270130	-59.962204	-0.835956	-9.695692	-17.235142	58.466366	8.655910	3.539400	-9.337390	3.063490	6.553860	-11.235701	-1.395670	3.658631	-6.305690	-1.588200	1.861810	-8.276111	2.076580	-1.102870	33.507801	0.640750	-1.761380	12.448801	-1.588200	0.000000	0.000000	-4.444401	10.839369	43.205444	26.277977	-37.481880	-9.056276	0.000001	0.000003	44.182789	35.118023	-1.484854	-1.044035	-7.125019	0.000000	0.000000	6.604107	28.142742	-2.724997	-1.588200	0.000000	0.000000	4.738105	-21.419538	39.005695	-24.054432	35.221764	-7.737929	0.000000	0.000000	17.378096	-44.291630	44.378773	-34.306320	7.125019	0.000000	0.000000	-2.518994	23.793346	-3.323449
	-1.380870	18.494400	-1.688490	-169.751007	5.087630	-163.095001	0.000000	0.000000	0.000000	-12.134497	-14.323895	-33.857456	3.951061	12.094997	36.068859	1.883587	14.177081	-34.270638	6.793625	15.155618	48.089413	0.000000	0.000000	0.000000	23.651896	-70.735283	-90.481674	-33.025238	-15.310609	131.221176	15.576216	-60.760067	3.504718	-9.600792	-17.179167	58.145573	9.166421	3.479550	-9.543589	3.077300	6.564300	-11.521800	-1.658800	3.662020	-6.489910	-1.365570	1.846601	-7.783929	1.997800	-1.183620	33.388195	0.561249	-1.795210	12.297400	-1.365570	-0.000000	0.000000	-4.659524	11.362949	41.482800	24.405914	-35.590565	-7.941565	-0.000001	-0.000003	45.468803	34.396229	-2.107722	-1.442359	-7.125019	0.000000	0.000000	5.996719	27.411757	-2.575695	-1.365570	-0.000000	0.000000	4.763402	-22.189325	36.902409	-22.021725	33.001568	-6.597675	0.000000	0.000000	18.099497	-43.492023	44.366558	-33.559296	7.125019	0.000000	0.000000	-2.164224	23.425138	-2.847697
	-1.383810	18.509199	-1.798740	-169.345993	4.775560	-162.636993	0.000000	0.000000	0.000000	-11.745601	-14.356479	-33.926094	3.914464	12.045704	35.893848	2.085299	13.319828	-34.727768	6.993290	15.326236	48.848942	0.000000	0.000000	0.000000	27.465885	-72.394966	-95.044212	-33.473549	-14.919807	132.940277	14.033980	-60.927773	8.509741	-9.453604	-17.090921	57.646000	9.555639	3.468130	-9.633649	3.171619	6.644349	-11.751499	-1.775150	3.705740	-6.688840	-1.284570	1.788330	-7.984211	1.998260	-1.317450	33.610397	0.526481	-1.852480	12.435902	-1.284570	0.000000	0.000000	-4.869691	11.661102	39.530090	22.527740	-33.568317	-6.875378	0.000001	0.000003	46.473389	33.719002	-2.628408	-1.753031	-7.125019	0.000000	0.000000	5.437746	26.811729	-2.410521	-1.284570	0.000000	0.000000	4.972433	-22.614388	33.903900	-19.892145	30.512184	-5.476485	0.000000	0.000000	19.635994	-42.991329	44.012394	-32.932262	7.125019	0.000000	0.000000	-2.076605	22.862150	-2.721568
